<svg width="185" height="100" viewBox="0 0 185 100" fill="none" xmlns="http://www.w3.org/2000/svg">
<rect width="185" height="100" fill="#383857" fill-opacity="0.6"/>
<path d="M87 40V60M97 40V60M82 45H87M82 55H87M82 50H102M97 45H102M97 55H102M82 42.5C82 41.837 82.2634 41.2011 82.7322 40.7322C83.2011 40.2634 83.837 40 84.5 40H99.5C100.163 40 100.799 40.2634 101.268 40.7322C101.737 41.2011 102 41.837 102 42.5V57.5C102 58.163 101.737 58.7989 101.268 59.2678C100.799 59.7366 100.163 60 99.5 60H84.5C83.837 60 83.2011 59.7366 82.7322 59.2678C82.2634 58.7989 82 58.163 82 57.5V42.5Z" stroke="#A6042E" stroke-width="2" stroke-linecap="round" stroke-linejoin="round"/>
</svg>
